HIERARCHY
ROOT Hips
{
	OFFSET 0.00000 0.00000 0.00000
	CHANNELS 6 Xposition Yposition Zposition Zrotation Yrotation Xrotation 
	JOINT LHipJoint
	{
		OFFSET 0 0 0
		CHANNELS 3 Zrotation Yrotation Xrotation
		JOINT LeftHip
		{
			OFFSET 1.17584 -1.63585 1.00361
			CHANNELS 3 Zrotation Yrotation Xrotation
			JOINT LeftKnee
			{
				OFFSET 2.23889 -6.15131 0.00000
				CHANNELS 3 Zrotation Yrotation Xrotation
				JOINT LeftAnkle
				{
					OFFSET 2.65161 -7.28525 0.00000
					CHANNELS 3 Zrotation Yrotation Xrotation
					JOINT LeftToe
					{
						OFFSET 0.24898 -0.68407 1.57235
						CHANNELS 3 Zrotation Yrotation Xrotation
						End Site
						{
							OFFSET 0.00000 -0.00000 0.85838
						}
					}
				}
			}
		}
	}
	JOINT RHipJoint
	{
		OFFSET 0 0 0
		CHANNELS 3 Zrotation Yrotation Xrotation
		JOINT RightHip
		{
			OFFSET -1.15592 -1.63585 1.00361
			CHANNELS 3 Zrotation Yrotation Xrotation
			JOINT RightKnee
			{
				OFFSET -2.34071 -6.43104 0.00000
				CHANNELS 3 Zrotation Yrotation Xrotation
				JOINT RightAnkle
				{
					OFFSET -2.59113 -7.11908 0.00000
					CHANNELS 3 Zrotation Yrotation Xrotation
					JOINT RightToe
					{
						OFFSET -0.17867 -0.49089 1.70981
						CHANNELS 3 Zrotation Yrotation Xrotation
						End Site
						{
							OFFSET -0.00000 -0.00000 0.89861
						}
					}
				}
			}
		}
	}
	JOINT lowerback
	{
		OFFSET 0 0 0
		CHANNELS 3 Zrotation Yrotation Xrotation
		JOINT Chest
		{
			OFFSET -0.02255 1.90764 -0.16605
			CHANNELS 3 Zrotation Yrotation Xrotation
			JOINT Chest2
			{
				OFFSET -0.00365 1.92150 -0.04898
				CHANNELS 3 Zrotation Yrotation Xrotation
				JOINT lowerneck
				{
					OFFSET 0 0 0
					CHANNELS 3 Zrotation Yrotation Xrotation
					JOINT Neck
					{
						OFFSET 0.00372 1.59170 0.08694
						CHANNELS 3 Zrotation Yrotation Xrotation
						JOINT Head
						{
							OFFSET 0.12558 1.58643 -0.08078
							CHANNELS 3 Zrotation Yrotation Xrotation
							End Site
							{
								OFFSET 0.04211 1.60835 -0.03803
							}
						}
					}
				}
				JOINT LeftCollar
				{
					OFFSET 0 0 0
					CHANNELS 3 Zrotation Yrotation Xrotation
					JOINT LeftShoulder
					{
						OFFSET 3.69324 0.96316 0.19077
CHANNELS 3 Zrotation Xrotation Yrotation
						JOINT LeftElbow
						{
OFFSET 0 -4.877960 -0.000000
CHANNELS 3 Zrotation Xrotation Yrotation
							JOINT LeftWrist
							{
OFFSET 0 -3.231690 0.000000
CHANNELS 3 Zrotation Xrotation Yrotation
								JOINT lhand
								{
									OFFSET 0 0 0
CHANNELS 3 Zrotation Xrotation Yrotation
									JOINT LFingers
									{
OFFSET 0 -0.731320 0.000000
CHANNELS 3 Zrotation Xrotation Yrotation
										End Site
										{
OFFSET 0 -0.589610 0.000000
										}
									}
								}
								JOINT LThumb
								{
OFFSET 0 0.000000 0.000000
CHANNELS 3 Zrotation Xrotation Yrotation
									End Site
									{
OFFSET 0 -0.598610 0.598610
									}
								}
							}
						}
					}
				}
				JOINT RightCollar
				{
					OFFSET 0 0 0
					CHANNELS 3 Zrotation Yrotation Xrotation
					JOINT RightShoulder
					{
						OFFSET -3.66103 0.75145 0.08281
CHANNELS 3 Zrotation Xrotation Yrotation
						JOINT RightElbow
						{
OFFSET 0 -4.914300 0.000000
CHANNELS 3 Zrotation Xrotation Yrotation
							JOINT RightWrist
							{
OFFSET 0 -3.290930 0.000000
CHANNELS 3 Zrotation Xrotation Yrotation
								JOINT rhand
								{
									OFFSET 0 0 0
CHANNELS 3 Zrotation Xrotation Yrotation
									JOINT RFingers
									{
OFFSET 0 -0.545120 0.000000
CHANNELS 3 Zrotation Xrotation Yrotation
										End Site
										{
OFFSET 0 -0.439490 0.000000
										}
									}
								}
								JOINT RThumb
								{
OFFSET 0 0.000000 0.000000
CHANNELS 3 Zrotation Xrotation Yrotation
									End Site
									{
OFFSET 0 -0.446200 0.446200
									}
								}
							}
						}
					}
				}
			}
		}
	}
}
MOTION
Frames: 9
Frame Time: 0.008333333333333333
21.011800 16.154400 0.144500 -74.633100 -83.904700 83.090900 0.000000 0.000000 0.000000 -6.534400 -4.475100 -15.305600 3.910900 12.040800 35.876600 4.064600 0.794500 -38.562400 1.787300 -8.408300 -23.961300 0.000000 0.000000 0.000000 10.350300 15.317100 -32.687100 -5.409000 -13.830100 42.561100 -1.462100 -8.116200 -27.057700 -1.199900 -6.950200 19.568000 5.817700 -0.222700 -2.340900 0.752900 -0.550300 1.653900 -2.510900 -0.169800 2.977900 -2.687500 -2.248400 0.119600 9.721300 -2.434000 -11.940900 3.480900 -1.631300 -3.389100 -0.000000 0.000000 0.000000 3.855500 -7.817400 -43.834600 17.222500 -27.150200 4.188400 18.411500 -2.911700 23.543400 0.000000 0.000000 0.000000 -7.125000 0.000000 0.000000 -6.661100 5.455300 -6.039500 -0.000000 0.000000 0.000000 -6.689100 -10.036800 20.971000 -19.747600 -30.337100 -5.403300 -17.863700 3.590200 41.998200 0.000000 0.000000 0.000000 7.125000 0.000000 -0.000000 29.743200 71.413700 -19.224300
21.076895 16.141795 0.174945 -82.299069 -85.467455 91.316355 0.000000 0.000000 0.000000 -8.256858 -4.498309 -16.135889 3.964978 12.113539 36.134953 4.113475 0.773864 -38.788420 1.591999 -7.958349 -22.587898 0.000000 0.000000 0.000000 8.425662 15.866214 -33.804513 -5.361952 -13.780166 42.363879 -1.350188 -8.512818 -26.520298 -1.059781 -6.538540 18.357624 3.696905 -0.139914 -2.652565 0.355217 -0.346539 1.452147 -1.724754 -0.106665 2.963854 -2.653309 -2.276187 0.240862 9.194994 -2.504402 -12.209202 3.322430 -1.652632 -3.495934 0.000000 0.000000 0.000000 4.176315 -7.983326 -42.994527 17.545803 -27.571161 4.337207 18.966599 -3.215971 23.528714 0.000000 0.000000 0.000000 -7.125000 0.000000 0.000000 -6.314965 5.385511 -5.731476 0.000000 0.000000 0.000000 -5.773389 -9.596981 23.180609 -19.203712 -29.670449 -5.131645 -25.772404 12.455060 33.054954 0.000000 0.000000 0.000000 7.125000 0.000000 0.000000 8.923762 65.572200 -4.682864
21.129612 16.126573 0.206705 -93.406663 -86.888547 102.931040 0.000000 0.000000 0.000000 -10.024497 -4.985874 -16.810775 4.045272 12.220336 36.516033 4.206501 1.235175 -39.369253 1.509379 -7.758667 -21.983768 0.000000 0.000000 0.000000 6.521075 16.220372 -34.722251 -5.295821 -13.709356 42.085541 -1.154246 -9.027992 -25.419192 -0.750946 -5.517718 15.395596 1.806080 -0.094885 -3.348612 -0.085296 -0.210227 1.433869 -1.113538 -0.065619 3.346322 -3.038585 -2.213892 0.140121 9.129226 -2.434558 -12.352852 3.365880 -1.600560 -3.521477 0.000000 0.000000 0.000000 4.624706 -8.160175 -42.313501 17.988542 -28.142087 4.543995 20.485724 -3.669907 22.960947 0.000000 0.000000 0.000000 -7.125000 0.000000 0.000000 -5.321530 5.732023 -4.785268 0.000000 0.000000 0.000000 -4.939905 -9.346954 25.274797 -18.872892 -29.260388 -4.968572 -32.123045 19.764244 26.941835 0.000000 0.000000 0.000000 7.125000 0.000000 0.000000 -2.331042 60.906697 0.811933
21.183722 16.108131 0.238278 -112.488820 -87.647855 122.387342 0.000000 0.000000 0.000000 -11.265977 -5.375717 -17.407779 4.137909 12.341711 36.951741 4.297483 1.617181 -39.913610 1.424105 -7.546432 -21.344623 0.000000 0.000000 0.000000 5.171506 16.544383 -35.432279 -5.222181 -13.629712 41.773805 -0.986246 -9.307035 -24.303993 -0.491663 -4.493298 12.469210 0.450343 -0.040386 -3.781922 -0.412787 -0.064759 1.360628 -0.681884 -0.018040 3.520082 -3.371432 -2.149745 -0.096764 8.961666 -2.377196 -12.274437 3.363218 -1.542490 -3.459885 0.000000 0.000000 0.000000 5.035917 -8.266075 -41.576417 18.366818 -28.624302 4.723716 21.702227 -3.812689 22.674567 0.000000 0.000000 0.000000 -7.125000 0.000000 0.000000 -4.535780 5.832333 -4.064483 0.000000 0.000000 0.000000 -4.164421 -9.105954 26.813691 -18.834871 -29.212917 -4.949966 -35.209334 23.242699 22.953501 0.000000 0.000000 0.000000 7.125000 0.000000 0.000000 -6.948784 57.243784 2.089355
21.239297 16.095125 0.271758 -130.393229 -87.606055 140.516923 0.000000 0.000000 0.000000 -11.870047 -5.738353 -17.871062 4.234254 12.465617 37.399915 4.384515 2.008500 -40.440264 1.351375 -7.358692 -20.782682 0.000000 0.000000 0.000000 4.515629 16.809956 -35.856841 -5.149267 -13.549896 41.463698 -0.896672 -9.131158 -23.410137 -0.322758 -3.641595 10.071438 -0.233953 0.033129 -4.046602 -0.595079 0.075547 1.309493 -0.476237 0.038328 3.618133 -3.578645 -2.100633 -0.381975 8.516054 -2.370279 -12.018920 3.387757 -1.490441 -3.491906 0.000000 0.000000 0.000000 5.434515 -8.409128 -40.844426 18.695796 -29.038712 4.882420 22.647073 -3.801081 22.501280 0.000000 0.000000 0.000000 -7.125000 0.000000 0.000000 -3.927782 5.854579 -3.514949 0.000000 0.000000 0.000000 -3.443713 -9.003458 27.690497 -19.049155 -29.479443 -5.055143 -35.051460 22.976640 20.093456 0.000000 0.000000 0.000000 7.125000 0.000000 0.000000 -7.053385 53.922393 1.563856
21.296174 16.090396 0.305674 -139.763509 -87.195604 150.018978 0.000000 0.000000 0.000000 -12.073542 -6.049493 -18.219099 4.313981 12.566897 37.768245 4.450773 2.409386 -40.873568 1.278516 -7.165425 -20.206636 0.000000 0.000000 0.000000 4.315715 16.985292 -36.082685 -5.093521 -13.488284 41.225128 -0.895889 -8.441971 -22.845643 -0.217160 -2.994143 8.262821 -0.489790 0.125410 -4.178066 -0.684103 0.215925 1.262579 -0.414211 0.103194 3.644285 -3.721823 -2.067864 -0.704882 7.937958 -2.397759 -11.657359 3.411227 -1.448159 -3.547358 0.000000 0.000000 0.000000 5.817592 -8.556626 -40.101054 18.995004 -29.412308 5.028433 23.601508 -3.899847 22.614274 0.000000 0.000000 0.000000 -7.125000 0.000000 0.000000 -3.342916 5.569262 -3.007591 0.000000 0.000000 0.000000 -2.787582 -8.960906 28.259414 -19.405377 -29.918998 -5.231674 -33.456178 21.174930 18.083823 0.000000 0.000000 0.000000 7.125000 0.000000 0.000000 -5.509880 51.276323 0.864976
21.354796 16.093783 0.338491 -144.234122 -86.708249 154.572262 0.000000 0.000000 0.000000 -12.122356 -6.285582 -18.509667 4.370605 12.637861 38.027649 4.488728 2.764749 -41.164127 1.201614 -6.954639 -19.581092 0.000000 0.000000 0.000000 4.339864 16.910382 -36.219470 -5.063338 -13.454765 41.095743 -0.962925 -7.304685 -22.560039 -0.145532 -2.455911 6.767606 -0.585693 0.217824 -4.239518 -0.736064 0.346533 1.222740 -0.404272 0.166413 3.638141 -3.837261 -2.041347 -1.001242 7.486765 -2.402431 -11.492833 3.260626 -1.419920 -3.434127 0.000000 0.000000 0.000000 6.193109 -8.712248 -39.339646 19.290900 -29.778417 5.174558 24.698602 -4.252376 22.915789 0.000000 0.000000 0.000000 -7.125000 0.000000 0.000000 -2.693265 5.049951 -2.448059 0.000000 0.000000 0.000000 -2.207009 -8.940392 28.797557 -19.783805 -30.380843 -5.421670 -32.205413 20.009512 17.318301 0.000000 0.000000 0.000000 7.125000 0.000000 0.000000 -4.284419 50.160938 0.545837
21.415079 16.102379 0.369008 -146.783619 -86.263259 157.163977 0.000000 0.000000 0.000000 -12.131421 -6.387999 -18.792185 4.409034 12.685649 38.202829 4.498228 2.997534 -41.286464 1.125015 -6.736751 -18.937923 0.000000 0.000000 0.000000 4.500928 16.450476 -36.316403 -5.059689 -13.450716 41.079991 -1.056027 -5.900040 -22.400358 -0.090638 -1.927678 5.306247 -0.652198 0.302718 -4.248315 -0.783057 0.464598 1.194580 -0.406807 0.224163 3.614193 -3.987076 -2.018500 -1.229929 7.101886 -2.404994 -11.385045 3.144585 -1.395010 -3.353984 0.000000 0.000000 0.000000 6.562551 -8.868820 -38.554505 19.612706 -30.172617 5.335443 25.966607 -4.849558 23.312082 0.000000 0.000000 0.000000 -7.125000 0.000000 0.000000 -1.956030 4.382822 -1.800648 0.000000 0.000000 0.000000 -1.716033 -8.914656 29.440368 -20.142882 -30.813823 -5.604522 -32.275779 20.145743 17.617011 0.000000 0.000000 0.000000 7.125000 0.000000 0.000000 -4.328979 50.515812 0.591569
21.476715 16.110106 0.396572 -148.348339 -85.873819 158.731511 0.000000 0.000000 0.000000 -12.112831 -6.371817 -19.082512 4.442775 12.727443 38.356545 4.492991 3.118045 -41.304438 1.062182 -6.552352 -18.395856 0.000000 0.000000 0.000000 4.797659 15.607370 -36.404963 -5.073224 -13.465812 41.138195 -1.125408 -4.546415 -22.164339 -0.040607 -1.286590 3.537814 -0.714785 0.382873 -4.221688 -0.826425 0.575659 1.179667 -0.408537 0.278465 3.583943 -4.166322 -1.991026 -1.346584 6.784644 -2.395545 -11.370542 3.063965 -1.368955 -3.328073 0.000000 0.000000 0.000000 6.911337 -9.031702 -37.754582 19.953597 -30.586227 5.507827 27.219243 -5.501951 23.746617 0.000000 0.000000 0.000000 -7.125000 0.000000 0.000000 -1.241981 3.661598 -1.159593 0.000000 0.000000 0.000000 -1.306855 -8.888062 30.154570 -20.477846 -31.213539 -5.776982 -33.151234 20.852810 18.116994 0.000000 0.000000 0.000000 7.125000 0.000000 0.000000 -5.184765 51.252992 0.801753
